<svg width="64" height="64" viewBox="0 0 64 64" xmlns="http://www.w3.org/2000/svg">
  <defs>
    <!-- Background gradient -->
    <linearGradient id="bgGradient" x1="0%" y1="0%" x2="100%" y2="100%">
      <stop offset="0%" style="stop-color:#28a745;stop-opacity:1" />
      <stop offset="50%" style="stop-color:#20c997;stop-opacity:1" />
      <stop offset="100%" style="stop-color:#007bff;stop-opacity:1" />
    </linearGradient>
    
    <!-- Cursor gradient -->
    <linearGradient id="cursorGradient" x1="0%" y1="0%" x2="100%" y2="100%">
      <stop offset="0%" style="stop-color:#ffffff;stop-opacity:1" />
      <stop offset="100%" style="stop-color:#f8f9fa;stop-opacity:0.9" />
    </linearGradient>
    
    <!-- Shadow filter -->
    <filter id="shadow" x="-20%" y="-20%" width="140%" height="140%">
      <feDropShadow dx="2" dy="2" stdDeviation="2" flood-color="rgba(0,0,0,0.3)"/>
    </filter>
    
    <!-- Click ripples -->
    <radialGradient id="ripple1" cx="50%" cy="50%" r="50%">
      <stop offset="0%" style="stop-color:#ffffff;stop-opacity:0.8" />
      <stop offset="70%" style="stop-color:#ffffff;stop-opacity:0.3" />
      <stop offset="100%" style="stop-color:#ffffff;stop-opacity:0" />
    </radialGradient>
    
    <radialGradient id="ripple2" cx="50%" cy="50%" r="50%">
      <stop offset="0%" style="stop-color:#ffffff;stop-opacity:0.4" />
      <stop offset="50%" style="stop-color:#ffffff;stop-opacity:0.2" />
      <stop offset="100%" style="stop-color:#ffffff;stop-opacity:0" />
    </radialGradient>
  </defs>
  
  <!-- Background circle -->
  <circle cx="32" cy="32" r="30" fill="url(#bgGradient)" stroke="#ffffff" stroke-width="2"/>
  
  <!-- Click ripple effects (outer) -->
  <circle cx="32" cy="32" r="25" fill="url(#ripple2)" opacity="0.6"/>
  <circle cx="32" cy="32" r="18" fill="url(#ripple1)" opacity="0.4"/>
  
  <!-- Modern cursor pointer -->
  <g filter="url(#shadow)">
    <!-- Cursor main body -->
    <path d="M20 15 L20 45 L28 37 L35 42 L38 38 L31 33 L40 25 Z" 
          fill="url(#cursorGradient)" 
          stroke="#333" 
          stroke-width="1.5"
          stroke-linejoin="round"/>
    
    <!-- Cursor highlight -->
    <path d="M22 18 L22 38 L27 34 L32 37 L34 35 L29 32 L35 27 Z" 
          fill="rgba(255,255,255,0.3)" 
          stroke="none"/>
  </g>
  
  <!-- Click indicator dots -->
  <circle cx="42" cy="20" r="2.5" fill="#ffffff" opacity="0.9">
    <animate attributeName="opacity" values="0.9;0.3;0.9" dur="1.5s" repeatCount="indefinite"/>
  </circle>
  <circle cx="46" cy="26" r="2" fill="#ffffff" opacity="0.7">
    <animate attributeName="opacity" values="0.7;0.2;0.7" dur="1.8s" repeatCount="indefinite"/>
  </circle>
  <circle cx="44" cy="32" r="1.5" fill="#ffffff" opacity="0.8">
    <animate attributeName="opacity" values="0.8;0.2;0.8" dur="2s" repeatCount="indefinite"/>
  </circle>
  
  <!-- Small link/chain elements -->
  <g opacity="0.8">
    <rect x="48" y="44" width="6" height="2" rx="1" fill="#ffffff" transform="rotate(45 48 44)"/>
    <rect x="52" y="48" width="6" height="2" rx="1" fill="#ffffff" transform="rotate(45 52 48)"/>
  </g>
</svg>